<?xml version="1.0" encoding="UTF-8"?>
<svg viewBox="0 0 500 500" version="1.1" xmlns="http://www.w3.org/2000/svg" xmlns:xlink="http://www.w3.org/1999/xlink">
    <g id="Login-dark-bg-white" stroke="none" stroke-width="1" fill="none" fill-rule="evenodd">
        <g id="Login" fill="currentColor">
            <g id="Group" transform="translate(57.000000, 54.000000)">
                <path d="M192.691564,196 C97.972564,196 18.947564,263.188 0.672563997,352.504 C-3.506436,372.932 12.329564,392 33.181564,392 L352.197564,392 C373.274564,392 388.881564,372.598 384.598564,351.96 C366.115564,262.915 287.217564,196 192.691564,196 M192.691564,246 C209.938564,246 226.795564,248.964 242.796564,254.811 C258.265564,260.462 272.594564,268.666 285.387564,279.194 C305.635564,295.859 321.010564,317.68 329.903564,342 L55.479564,342 C64.348564,317.742 79.663564,295.974 99.841564,279.321 C112.646564,268.754 126.995564,260.519 142.490564,254.845 C158.519564,248.976 175.410564,246 192.691564,246" id="Fill-1"></path>
                <circle id="Oval" fill-rule="nonzero" cx="193" cy="86" r="86"></circle>
            </g>
        </g>
    </g>
</svg>
