<?xml version="1.0" encoding="UTF-8"?>
<svg viewBox="0 0 500 500" version="1.1" xmlns="http://www.w3.org/2000/svg" xmlns:xlink="http://www.w3.org/1999/xlink">
    <defs>
        <polygon id="path-1" points="0 0.000676167529 351.999889 0.000676167529 351.999889 391.235463 0 391.235463"></polygon>
    </defs>
    <g id="Settings-dark-bg-white" stroke="none" stroke-width="1" fill="none" fill-rule="evenodd">
        <g id="Settings">
            <g id="Group-" transform="translate(74.000000, 54.000000)">
                <mask id="mask-2" fill="white">
                    <use xlink:href="#path-1"></use>
                </mask>
                <g id="Clip"></g>
                <path d="M176,300.81073 C117.976571,300.81073 70.9387755,253.714088 70.9387755,195.61807 C70.9387755,137.522051 117.976571,90.4254092 176,90.4254092 C234.023429,90.4254092 281.061224,137.522051 281.061224,195.61807 C281.061224,253.714088 234.023429,300.81073 176,300.81073 M328.957469,225.313868 C328.825469,225.229354 328.695265,225.143941 328.563265,225.060327 C322.127592,220.951519 318.33102,213.713006 318.885061,206.091483 C319.13649,202.633611 319.265796,199.140675 319.265796,195.61807 C319.265796,192.095464 319.13649,188.602528 318.885061,185.143758 C318.33102,177.524033 322.126694,170.28462 328.560571,166.177611 C328.695265,166.092198 328.828163,166.005886 328.961959,165.918675 C350.756327,151.724859 358.319837,122.875097 346.303347,99.7893541 C332.836653,73.9146569 300.720245,64.7350239 275.747102,79.1706936 C275.717469,79.1886752 275.686939,79.2057578 275.656408,79.2237394 C270.353959,82.3030972 263.790776,82.1008037 258.790041,78.5512257 C251.600082,73.4462349 243.919837,68.9885835 235.831918,65.2627853 C230.366939,62.7453541 226.842449,57.2267853 226.875673,51.2038312 C226.881061,50.1833725 226.856816,49.1566202 226.801143,48.1235743 C225.405714,22.1167119 204.202204,1.14021651 178.213469,0.0469321101 C149.127673,-1.17761835 125.163837,22.0699596 125.163837,50.9206202 C125.163837,50.9961431 125.163837,51.0716661 125.164735,51.147189 C125.190776,57.2240881 121.721959,62.7228771 116.20849,65.2627853 C108.079265,69.0074642 100.360408,73.4920881 93.1381224,78.630345 C88.308898,82.0666385 81.8875918,82.4847119 76.7898776,79.4619963 C75.8434286,78.9009688 74.8727347,78.3660147 73.876898,77.858033 C50.7149388,66.0521798 21.9874286,73.8993725 8.01428571,95.8423817 C-7.66228571,120.461061 0.452571429,152.924235 25.4364898,167.367097 C25.4670204,167.385079 25.497551,167.402161 25.5271837,167.419244 C30.7847347,170.444657 33.9635102,176.156528 33.3995918,182.201061 C32.9865306,186.618253 32.7746122,191.092987 32.7746122,195.61807 C32.7746122,200.143152 32.9865306,204.617886 33.3995918,209.035079 C33.9518367,214.958235 30.9912653,220.718657 25.8208163,223.648767 C24.8986122,224.172033 23.9853878,224.726767 23.0829388,225.313868 C1.29036735,239.503189 -6.27763265,268.344859 5.72718367,291.429703 C19.1902857,317.316987 51.3156735,326.503813 76.2933061,312.065446 L76.384,312.0124 C81.685551,308.933042 88.2496327,309.135336 93.2494694,312.684914 C100.440327,317.790804 108.121469,322.247556 116.20849,325.972455 C121.673469,328.490785 125.197061,334.010253 125.164735,340.032308 C125.159347,341.052767 125.183592,342.07862 125.239265,343.112565 C126.634694,369.120327 147.838204,390.096822 173.826939,391.189207 C202.912735,392.413758 226.876571,369.16618 226.876571,340.315519 C226.876571,340.239097 226.876571,340.164473 226.875673,340.08895 C226.849633,334.012051 230.318449,328.513262 235.831918,325.972455 C243.965633,322.225978 251.68898,317.738657 258.914857,312.595905 C263.835673,309.094877 270.310857,308.88629 275.524408,311.935079 C275.598041,311.979134 275.672571,312.02229 275.747102,312.065446 C300.724735,326.503813 332.85102,317.316987 346.312327,291.429703 C358.318041,268.344859 350.749143,239.503189 328.957469,225.313868" id="Fill-" fill="currentColor" mask="url(#mask-2)"></path>
                <ellipse id="Oval" fill="currentColor" fill-rule="nonzero" cx="176" cy="196" rx="53.877551" ry="53.9449541"></ellipse>
            </g>
        </g>
    </g>
</svg>
